<svg width="303" height="129" viewBox="0 0 303 129" fill="none" xmlns="http://www.w3.org/2000/svg">
<g clip-path="url(#clip0_322_409)">
<mask id="mask0_322_409" style="mask-type:luminance" maskUnits="userSpaceOnUse" x="-245" y="-242" width="792" height="612">
<path d="M547 -242H-245V370H547V-242Z" fill="white"/>
</mask>
<g mask="url(#mask0_322_409)">
<path d="M0.160034 76.36H9.12003L29.45 116.46H29.85L49.79 76.36H58.62V128.6H49.79V85.8H49.49L28.09 128.6H26.28L4.62003 86.11H4.00003V128.6H0.160034V76.36Z" fill="#231F20"/>
<mask id="mask1_322_409" style="mask-type:luminance" maskUnits="userSpaceOnUse" x="-245" y="-242" width="792" height="612">
<path d="M547 -242H-245V370H547V-242Z" fill="white"/>
</mask>
<g mask="url(#mask1_322_409)">
<path d="M71.77 76.36H92.81C95.57 76.36 98.12 76.67 100.44 77.29C102.76 77.91 104.76 78.78 106.42 79.91C108.08 81.04 109.38 82.4 110.3 83.97C111.23 85.54 111.69 87.29 111.69 89.2C111.69 90.61 111.54 91.88 111.25 93.02C110.96 94.15 110.44 95.2 109.71 96.15C108.98 97.1 108 98.01 106.78 98.86C105.56 99.71 104.02 100.58 102.17 101.46V101.64C104.02 101.93 105.7 102.43 107.2 103.14C108.7 103.85 109.99 104.75 111.06 105.85C112.13 106.95 112.96 108.23 113.53 109.67C114.1 111.11 114.39 112.71 114.39 114.48C114.39 116.45 113.96 118.3 113.09 120.02C112.22 121.74 110.99 123.23 109.41 124.5C107.82 125.77 105.9 126.77 103.65 127.5C101.4 128.24 98.89 128.6 96.13 128.6H71.78V76.36H71.77ZM80.55 99.87H91.71C93.48 99.87 95.04 99.62 96.41 99.12C97.78 98.62 98.93 97.93 99.87 97.05C100.81 96.17 101.52 95.12 102.01 93.92C102.5 92.71 102.74 91.4 102.74 89.99C102.74 88.46 102.45 87.07 101.88 85.82C101.31 84.57 100.41 83.51 99.19 82.62C97.97 81.74 96.42 81.05 94.54 80.57C92.66 80.09 90.41 79.84 87.79 79.84H80.55V99.87ZM80.55 124.76H90.04C92.6 124.76 94.81 124.52 96.68 124.03C98.55 123.54 100.09 122.86 101.31 121.98C102.53 121.1 103.43 120.05 104.02 118.83C104.61 117.61 104.9 116.25 104.9 114.75C104.9 113.1 104.64 111.57 104.11 110.16C103.58 108.75 102.72 107.52 101.53 106.48C100.34 105.44 98.78 104.61 96.85 104.01C94.92 103.41 92.56 103.11 89.77 103.11H80.55V124.77V124.76Z" fill="#231F20"/>
<path d="M144.56 75.17L169.14 128.6H160.23L152.24 111.17H129.87L121.62 128.6H117.21L142.4 75.17H144.56ZM131.42 107.77H150.66L141.17 87.12L131.42 107.77Z" fill="#231F20"/>
<path d="M173.02 76.36L191.11 102.83L209.15 76.36H213.92L193.67 106.01V128.6H184.89V106.84L164.02 76.36H173.02Z" fill="#231F20"/>
<path d="M235.36 75.17L259.94 128.6H251.03L243.04 111.17H220.67L212.42 128.6H208.01L233.2 75.17H235.36ZM222.21 107.77H241.45L231.96 87.12L222.21 107.77Z" fill="#231F20"/>
<path d="M302.82 76.36V79.71H283.89V128.6H275.11V79.71H256.19V76.36H302.82Z" fill="#231F20"/>
<path d="M160.2 8.37C160.2 13.18 156.3 17.08 151.49 17.08C146.68 17.08 142.78 13.18 142.78 8.37C142.78 3.56 146.68 -0.339996 151.49 -0.339996C156.3 -0.339996 160.2 3.56 160.2 8.37Z" fill="#DE8230"/>
<path d="M160.1 43.2C160.1 48.01 156.2 51.91 151.39 51.91C146.58 51.91 142.68 48.01 142.68 43.2C142.68 38.39 146.58 34.49 151.39 34.49C156.2 34.49 160.1 38.39 160.1 43.2Z" fill="#70C7B7"/>
<path d="M142.78 25.78C142.78 30.59 138.88 34.49 134.07 34.49C129.26 34.49 125.36 30.59 125.36 25.78C125.36 20.97 129.26 17.07 134.07 17.07C138.88 17.07 142.78 20.97 142.78 25.78Z" fill="#40103B"/>
<path d="M177.61 25.78C177.61 30.59 173.71 34.49 168.9 34.49C164.09 34.49 160.19 30.59 160.19 25.78C160.19 20.97 164.09 17.07 168.9 17.07C173.71 17.07 177.61 20.97 177.61 25.78Z" fill="#B02C52"/>
</g>
</g>
</g>
<defs>
<clipPath id="clip0_322_409">
<rect width="303" height="129" fill="white"/>
</clipPath>
</defs>
</svg>
