<svg width="24" height="24" viewBox="0 0 24 24" fill="none" xmlns="http://www.w3.org/2000/svg">
<g clip-path="url(#clip0_391_937)">
<path d="M23.5758 6.429L21.6658 3.258L11.9998 0.0359993L2.3338 3.258L0.441799 6.397C-0.0332013 7.189 -0.121201 8.139 0.198799 9.004C0.508799 9.843 1.1628 10.492 1.9988 10.797L1.9908 20.641L11.9908 23.974L21.9908 20.641L21.9988 10.797C22.8448 10.501 23.5058 9.851 23.8178 9.009C24.1348 8.152 24.0468 7.212 23.5758 6.427V6.429ZM17.8388 4.091L12.0078 6.037L6.1748 4.086L11.9998 2.144L17.8388 4.091ZM2.1558 7.428L3.4478 5.283L10.4958 7.64L8.9668 10.189C8.7278 10.587 8.2318 10.77 7.7938 10.623L2.7128 8.93C2.4158 8.831 2.1828 8.606 2.0738 8.312C1.9658 8.019 1.9948 7.695 2.1558 7.428ZM3.9988 11.466L7.1618 12.52C8.5048 12.968 9.9538 12.432 10.6828 11.218L10.9988 10.692L10.9938 21.535L3.9938 19.202L3.9998 11.467L3.9988 11.466ZM12.9928 21.534L12.9978 10.685L13.3168 11.217C13.8728 12.145 14.8488 12.676 15.8778 12.676C16.1968 12.676 16.5208 12.625 16.8378 12.519L19.9988 11.466L19.9928 19.2L12.9928 21.534ZM21.9428 8.318C21.8378 8.603 21.6118 8.821 21.3238 8.917L16.2058 10.623C15.7678 10.77 15.2718 10.588 15.0328 10.189L13.5068 7.646L20.5578 5.293L21.8628 7.46C22.0188 7.72 22.0488 8.033 21.9428 8.318Z" fill="#40103B"/>
</g>
<defs>
<clipPath id="clip0_391_937">
<rect width="24" height="24" fill="white"/>
</clipPath>
</defs>
</svg>
