<svg width="24" height="24" viewBox="0 0 24 24" fill="none" xmlns="http://www.w3.org/2000/svg">
<g clip-path="url(#clip0_391_942)">
<path d="M21 1.99995H16.46C15.8997 1.37093 15.2126 0.867555 14.4439 0.522873C13.6753 0.178191 12.8424 0 12 0C11.1576 0 10.3247 0.178191 9.55606 0.522873C8.7874 0.867555 8.10034 1.37093 7.54 1.99995H3C2.20435 1.99995 1.44129 2.31602 0.87868 2.87863C0.31607 3.44124 0 4.2043 0 4.99995L0 24H24V4.99995C24 4.2043 23.6839 3.44124 23.1213 2.87863C22.5587 2.31602 21.7956 1.99995 21 1.99995ZM12 1.99995C13.0609 1.99995 14.0783 2.42138 14.8284 3.17152C15.5786 3.92167 16 4.93908 16 5.99995V6.99995H12.618L13.9 4.44695L12.11 3.55295L10.382 6.99995H8V5.99995C8 4.93908 8.42143 3.92167 9.17157 3.17152C9.92172 2.42138 10.9391 1.99995 12 1.99995ZM22 22H2V4.99995C2 4.73473 2.10536 4.48038 2.29289 4.29284C2.48043 4.10531 2.73478 3.99995 3 3.99995H6.35C6.12011 4.64177 6.00173 5.3182 6 5.99995V8.99995H18V5.99995C17.9983 5.3182 17.8799 4.64177 17.65 3.99995H21C21.2652 3.99995 21.5196 4.10531 21.7071 4.29284C21.8946 4.48038 22 4.73473 22 4.99995V22Z" fill="#40103B"/>
</g>
<defs>
<clipPath id="clip0_391_942">
<rect width="24" height="24" fill="white"/>
</clipPath>
</defs>
</svg>
