<svg width="24" height="24" viewBox="0 0 24 24" fill="none" xmlns="http://www.w3.org/2000/svg">
<g clip-path="url(#clip0_391_912)">
<path d="M7.7069 9.293C8.0979 9.684 8.0979 10.317 7.7069 10.707C7.3159 11.098 6.6829 11.098 6.2929 10.707C5.9019 10.316 5.9019 9.683 6.2929 9.293C6.6839 8.902 7.3169 8.902 7.7069 9.293ZM22.1799 12.924L20.9399 14.205C21.1269 15.089 20.8799 16.047 20.1949 16.732L13.9509 23.181C13.4189 23.713 12.7259 24 11.9889 24C11.2519 24 10.5589 23.713 10.0389 23.192L1.0249 14.18L2.0339 5.057L11.1709 3.807L19.8339 12.47L20.7539 11.52C21.0619 11.213 21.0619 10.732 20.7659 10.436L12.4349 2.107L5.1799 3.044L4.9239 1.061L13.1529 -0.0019989L22.1789 9.024C23.2539 10.099 23.2539 11.849 22.1789 12.925L22.1799 12.924ZM18.7809 14.245L10.4579 5.924L3.8509 6.828L3.1199 13.445L11.4529 21.778C11.7399 22.065 12.2379 22.065 12.5249 21.778L18.7689 15.329C19.0769 15.022 19.0769 14.541 18.7809 14.245Z" fill="#40103B"/>
</g>
<defs>
<clipPath id="clip0_391_912">
<rect width="24" height="24" fill="white"/>
</clipPath>
</defs>
</svg>
