<svg width="26" height="24" viewBox="0 0 26 24" fill="none" xmlns="http://www.w3.org/2000/svg">
<path d="M6.27197 13.5H10.976V15H6.27197V13.5ZM6.27197 16.5H14.112V18H6.27197V16.5Z" fill="#898989"/>
<path d="M20.384 3H4.70399C4.28832 3.0006 3.88985 3.15882 3.59593 3.44C3.30201 3.72117 3.13661 4.10236 3.13599 4.5V19.5C3.13661 19.8976 3.30201 20.2788 3.59593 20.56C3.88985 20.8412 4.28832 20.9994 4.70399 21H20.384C20.7997 20.9994 21.1981 20.8412 21.492 20.56C21.786 20.2788 21.9514 19.8976 21.952 19.5V4.5C21.9514 4.10236 21.786 3.72117 21.492 3.44C21.1981 3.15882 20.7997 3.0006 20.384 3ZM14.112 4.5V7.5H10.976V4.5H14.112ZM4.70399 19.5V4.5H9.40799V9H15.68V4.5H20.384L20.3848 19.5H4.70399Z" fill="#898989"/>
</svg>
