<svg width="26" height="24" viewBox="0 0 26 24" fill="none" xmlns="http://www.w3.org/2000/svg">
<g clip-path="url(#clip0_343_393)">
<path d="M24.0427 13.5V10.5L20.6475 10.057C20.4478 9.29471 20.1307 8.56507 19.7067 7.892L21.7806 5.282L19.5666 3.161L16.8383 5.145C16.1347 4.73934 15.372 4.43603 14.5752 4.245L14.1121 1H10.9761L10.513 4.248C9.71615 4.43903 8.95343 4.74234 8.24985 5.148L5.52153 3.161L3.30438 5.282L5.37832 7.892C4.95427 8.56507 4.6372 9.29471 4.43752 10.057L1.04541 10.5V13.5L4.44065 13.943C4.64034 14.7053 4.95741 15.4349 5.38145 16.108L3.30751 18.718L5.52466 20.839L8.25298 18.855C8.95656 19.2607 9.71929 19.564 10.5161 19.755L10.9761 23H14.1121L14.5752 19.752C15.372 19.561 16.1347 19.2577 16.8383 18.852L19.5666 20.836L21.7838 18.715L19.7098 16.105C20.1339 15.4319 20.451 14.7023 20.6506 13.94L24.0427 13.5Z" stroke="#898989" stroke-width="1.5" stroke-miterlimit="10" stroke-linecap="square"/>
<path d="M12.544 15C14.2759 15 15.68 13.6569 15.68 12C15.68 10.3431 14.2759 9 12.544 9C10.812 9 9.40796 10.3431 9.40796 12C9.40796 13.6569 10.812 15 12.544 15Z" stroke="#898989" stroke-width="1.5" stroke-miterlimit="10" stroke-linecap="square"/>
</g>
<defs>
<clipPath id="clip0_343_393">
<rect width="25.088" height="24" fill="white"/>
</clipPath>
</defs>
</svg>
